<svg width="20" height="18" viewBox="0 0 20 18" fill="none" xmlns="http://www.w3.org/2000/svg">
<path d="M8.2442 1.86956C9.0022 0.479678 10.9979 0.479678 11.7559 1.86956L12.9723 4.09993C13.2599 4.62738 13.7694 4.99758 14.36 5.10817L16.8571 5.57579C18.4132 5.86719 19.0299 7.76527 17.9422 8.91567L16.1969 10.7617C15.7842 11.1983 15.5895 11.7973 15.6668 12.3931L15.9938 14.9125C16.1975 16.4824 14.5829 17.6555 13.1527 16.9766L10.8577 15.8871C10.3149 15.6295 9.6851 15.6295 9.1424 15.8871L6.84732 16.9766C5.41713 17.6555 3.80257 16.4824 4.00629 14.9125L4.3332 12.3931C4.41051 11.7973 4.21588 11.1983 3.80313 10.7617L2.05781 8.91567C0.970188 7.76527 1.58689 5.86719 3.14299 5.57579L5.64007 5.10817C6.2306 4.99758 6.74014 4.62738 7.02779 4.09993L8.2442 1.86956Z" stroke="#252432" stroke-width="1.5" stroke-linejoin="round"/>
</svg>
