<svg width="131" height="30" viewBox="0 0 131 30" fill="none" xmlns="http://www.w3.org/2000/svg">
<path d="M127.894 23.331V6.88538H130.592V23.331H127.894Z" fill="black"/>
<path d="M111.533 17.3206V6.88538H114.231V17.368C114.231 19.9235 115.674 21.1303 117.946 21.1303C120.241 21.1303 121.684 19.9235 121.684 17.368V6.88538H124.382V17.3206C124.382 21.5089 121.353 23.4966 117.922 23.4966C114.467 23.4966 111.533 21.5089 111.533 17.3206Z" fill="black"/>
<path d="M105.173 16.4689V23.3311H102.475V10.2929H105.173V12.1859C105.93 10.8845 107.231 10.08 109.077 10.08V12.8722H108.391C106.403 12.8722 105.173 13.7004 105.173 16.4689Z" fill="black"/>
<path d="M93.3606 12.3516C91.5386 12.3516 90.0715 13.582 89.7875 15.6407H97.0047C96.9573 13.6294 95.3719 12.3516 93.3606 12.3516ZM99.4656 19.4504C98.7321 21.722 96.6734 23.544 93.4789 23.544C89.7402 23.544 86.9717 20.8938 86.9717 16.8002C86.9717 12.7065 89.6219 10.08 93.4789 10.08C97.194 10.08 99.8205 12.6592 99.8205 16.4926C99.8205 16.9421 99.7969 17.3681 99.7259 17.8177H89.7639C89.9532 19.971 91.4913 21.2724 93.4789 21.2724C95.1353 21.2724 96.0582 20.4679 96.5551 19.4504H99.4656Z" fill="black"/>
<path d="M79.4924 19.7106V12.4935H77.9543V10.2928H79.4924V7.05103H82.2136V10.2928H85.3844V12.4935H82.2136V19.7106C82.2136 20.6808 82.5922 21.083 83.7281 21.083H85.3844V23.331H83.2548C80.9358 23.331 79.4924 22.3608 79.4924 19.7106Z" fill="black"/>
<path d="M76.1518 19.687C76.1518 21.8877 74.2351 23.544 71.159 23.544C68.0355 23.544 65.8349 21.6984 65.7166 19.3321H68.5088C68.6034 20.3969 69.6209 21.2724 71.1117 21.2724C72.6734 21.2724 73.5016 20.6099 73.5016 19.7107C73.5016 17.1551 65.9295 18.6222 65.9295 13.8423C65.9295 11.76 67.8699 10.08 70.946 10.08C73.9039 10.08 75.8442 11.6654 75.9862 14.2683H73.2886C73.194 13.1324 72.3185 12.3516 70.8514 12.3516C69.4079 12.3516 68.6507 12.9431 68.6507 13.8187C68.6507 16.4452 76.0098 14.9781 76.1518 19.687Z" fill="black"/>
<path d="M49.4902 16.7528C49.4902 12.7302 52.2114 10.08 55.6425 10.08C57.8432 10.08 59.3576 11.1211 60.1621 12.1859V10.2929H62.8833V23.3311H60.1621V21.3907C59.3339 22.5029 57.7722 23.544 55.5952 23.544C52.2114 23.544 49.4902 20.7755 49.4902 16.7528ZM60.1621 16.8002C60.1621 14.008 58.2454 12.4226 56.2104 12.4226C54.1991 12.4226 52.2588 13.937 52.2588 16.7528C52.2588 19.5687 54.1991 21.2014 56.2104 21.2014C58.2454 21.2014 60.1621 19.616 60.1621 16.8002Z" fill="black"/>
<path d="M38.2114 23.331V6.88538H47.8895V9.08601H40.909V13.9369H46.3514V16.1375H40.909V23.331H38.2114Z" fill="black"/>
<path fill-rule="evenodd" clip-rule="evenodd" d="M7.89875 0.809937C3.54866 0.809937 0.0222168 4.33637 0.0222168 8.68647V21.5753C0.0222168 25.9254 3.54866 29.4519 7.89875 29.4519H20.7876C25.1377 29.4519 28.6642 25.9254 28.6642 21.5754V8.68647C28.6642 4.33638 25.1377 0.809937 20.7876 0.809937H7.89875ZM19.1886 13.1979C19.24 13.2272 19.2825 13.2694 19.3118 13.3202C19.3411 13.3709 19.3562 13.4284 19.3555 13.4867C19.3548 13.545 19.3383 13.6021 19.3078 13.6521L14.0418 22.8532C14.0014 22.9157 13.9408 22.9632 13.8698 22.988C13.7987 23.0129 13.7212 23.0137 13.6496 22.9904C13.578 22.9671 13.5165 22.9209 13.4747 22.8593C13.4329 22.7977 13.4133 22.7241 13.4191 22.6503L14.0041 17.1094H9.66689C9.6071 17.1094 9.5484 17.0938 9.49684 17.0641C9.44528 17.0344 9.40272 16.9918 9.37355 16.9406C9.34438 16.8894 9.32965 16.8315 9.3309 16.7729C9.33214 16.7142 9.3493 16.657 9.38061 16.607L14.7351 7.40496C14.7765 7.34256 14.8381 7.29564 14.91 7.27175C14.9818 7.24786 15.0598 7.2484 15.1314 7.27328C15.2029 7.29816 15.2638 7.34593 15.3043 7.4089C15.3448 7.47187 15.3625 7.54638 15.3546 7.62042L14.6164 13.153H19.0194C19.0789 13.153 19.1372 13.1685 19.1886 13.1979Z" fill="black"/>
</svg>
