<svg width="29" height="30" viewBox="0 0 29 30" fill="none" xmlns="http://www.w3.org/2000/svg">
<path fill-rule="evenodd" clip-rule="evenodd" d="M7.89875 0.809937C3.54866 0.809937 0.0222168 4.33637 0.0222168 8.68647V21.5753C0.0222168 25.9254 3.54866 29.4519 7.89875 29.4519H20.7876C25.1377 29.4519 28.6642 25.9254 28.6642 21.5754V8.68647C28.6642 4.33638 25.1377 0.809937 20.7876 0.809937H7.89875ZM19.1886 13.1979C19.24 13.2272 19.2825 13.2694 19.3118 13.3202C19.3411 13.3709 19.3562 13.4284 19.3555 13.4867C19.3548 13.545 19.3383 13.6021 19.3078 13.6521L14.0418 22.8532C14.0014 22.9157 13.9408 22.9632 13.8698 22.988C13.7987 23.0129 13.7212 23.0137 13.6496 22.9904C13.578 22.9671 13.5165 22.9209 13.4747 22.8593C13.4329 22.7977 13.4133 22.7241 13.4191 22.6503L14.0041 17.1094H9.66689C9.6071 17.1094 9.5484 17.0938 9.49684 17.0641C9.44528 17.0344 9.40272 16.9918 9.37355 16.9406C9.34438 16.8894 9.32965 16.8315 9.3309 16.7729C9.33214 16.7142 9.3493 16.657 9.38061 16.607L14.7351 7.40496C14.7765 7.34256 14.8381 7.29564 14.91 7.27175C14.9818 7.24786 15.0598 7.2484 15.1314 7.27328C15.2029 7.29816 15.2638 7.34593 15.3043 7.4089C15.3448 7.47187 15.3625 7.54638 15.3546 7.62042L14.6164 13.153H19.0194C19.0789 13.153 19.1372 13.1685 19.1886 13.1979Z" fill="black"/>
</svg>
